<svg width="35" height="35" viewBox="0 0 35 35" fill="none" xmlns="http://www.w3.org/2000/svg">
<path d="M23.3334 11.6667C25.6541 11.6667 27.8797 12.5886 29.5206 14.2296C31.1615 15.8705 32.0834 18.0961 32.0834 20.4167V30.6251H26.2501V20.4167C26.2501 19.6432 25.9428 18.9013 25.3958 18.3544C24.8488 17.8074 24.107 17.5001 23.3334 17.5001C22.5599 17.5001 21.818 17.8074 21.271 18.3544C20.724 18.9013 20.4167 19.6432 20.4167 20.4167V30.6251H14.5834V20.4167C14.5834 18.0961 15.5053 15.8705 17.1462 14.2296C18.7872 12.5886 21.0128 11.6667 23.3334 11.6667Z" stroke="#FFFFFF" stroke-width="4" stroke-linecap="round" stroke-linejoin="round"/>
<path d="M8.75008 13.1251H2.91675V30.6251H8.75008V13.1251Z" stroke="#FFFFFF" stroke-width="4" stroke-linecap="round" stroke-linejoin="round"/>
<path d="M5.83341 8.75008C7.44424 8.75008 8.75008 7.44425 8.75008 5.83341C8.75008 4.22258 7.44424 2.91675 5.83341 2.91675C4.22258 2.91675 2.91675 4.22258 2.91675 5.83341C2.91675 7.44425 4.22258 8.75008 5.83341 8.75008Z" stroke="#FFFFFF" stroke-width="4" stroke-linecap="round" stroke-linejoin="round"/>
</svg>
